<!DOCTYPE svg PUBLIC "-//W3C//DTD SVG 1.1//EN" "http://www.w3.org/Graphics/SVG/1.1/DTD/svg11.dtd">
<!-- Uploaded to: SVG Repo, www.svgrepo.com, Transformed by: SVG Repo Mixer Tools -->
<svg height="800px" width="800px" version="1.1" id="Layer_1" xmlns="http://www.w3.org/2000/svg" xmlns:xlink="http://www.w3.org/1999/xlink" viewBox="0 0 512.001 512.001" xml:space="preserve" fill="#000000">
<g id="SVGRepo_bgCarrier" stroke-width="0"/>
<g id="SVGRepo_tracerCarrier" stroke-linecap="round" stroke-linejoin="round"/>
<g id="SVGRepo_iconCarrier"> <path style="fill:#726dae;" d="M450.022,277.558v86.232v118.568c0,12.167-10.079,21.98-22.344,21.544 c-11.682-0.415-20.772-10.372-20.772-22.06v-96.494c0-11.906-9.651-21.558-21.558-21.558l0,0c-11.906,0-21.558,9.651-21.558,21.558 v97.011c0,12.167-10.079,21.98-22.344,21.544c-11.682-0.415-20.772-10.372-20.772-22.06V363.789v-86.232H450.022z"/> <path style="fill:#726dae;" d="M482.358,191.326v107.789H288.337V191.326c0-35.718,28.955-64.674,64.674-64.674h64.674 C453.403,126.653,482.358,155.608,482.358,191.326z"/> <path style="fill:#726dae;" d="M385.348,299.116h-97.01V191.326c0-35.718,28.955-64.674,64.674-64.674h32.337V299.116z"/> <path style="fill:#F4C064;" d="M428.464,51.2c0,23.812-19.303,43.116-43.116,43.116c-23.812,0-43.116-19.304-43.116-43.116 s19.304-43.116,43.116-43.116C409.161,8.084,428.464,27.388,428.464,51.2z M320.674,212.884h-32.337v118.568 c0,11.906,9.651,21.558,21.558,21.558c11.906,0,21.558-9.651,21.558-21.558V223.663C331.453,217.71,326.627,212.884,320.674,212.884 z M450.022,212.884c-5.953,0-10.779,4.826-10.779,10.779v107.789c0,11.906,9.651,21.558,21.558,21.558s21.558-9.651,21.558-21.558 V212.884H450.022z"/> <path style="fill:#F4C064;" d="M385.348,8.084v86.232c-23.812,0-43.116-19.304-43.116-43.116S361.536,8.084,385.348,8.084z"/> <path style="fill:#7F5D3B;" d="M304.506,482.358h-37.726v-53.895h37.726c14.883,0,26.947,12.065,26.947,26.947l0,0 C331.453,470.293,319.388,482.358,304.506,482.358z"/> <path style="fill:#99774F;" d="M288.337,428.463v75.453h-204.8c-11.906,0-21.558-9.651-21.558-21.558l0,0 c0-11.906,9.651-21.558,21.558-21.558h10.779v-43.116H72.758c-23.812,0-43.116-19.304-43.116-43.116v-10.779 c0-23.812,19.304-43.116,43.116-43.116h43.116c11.906,0,21.558,9.651,21.558,21.558v43.116h107.789 C269.033,385.347,288.337,404.651,288.337,428.463z"/> <path style="fill:#7F5D3B;" d="M234.443,503.916h-86.232V460.8c0-11.906,9.651-21.558,21.558-21.558h43.116 c11.906,0,21.558,9.651,21.558,21.558c-11.906,0-21.558,9.651-21.558,21.558C212.885,494.264,222.536,503.916,234.443,503.916z M115.874,374.568H29.643c0,23.812,19.304,43.116,43.116,43.116h43.116c11.906,0,21.558-9.651,21.558-21.558v-10.779v-10.779V353.01 h-21.558V374.568z"/> <path style="fill:#634429;" d="M94.316,363.789v-43.116h21.558c11.906,0,21.558,9.651,21.558,21.558v21.558 c0,11.906-9.651,21.558-21.558,21.558l0,0C103.968,385.347,94.316,375.696,94.316,363.789z M51.201,369.179 c0,5.953-4.826,10.779-10.779,10.779H29.99c-0.221-1.767-0.347-3.562-0.347-5.389v-10.779c0-1.827,0.127-3.623,0.347-5.389h10.432 C46.375,358.4,51.201,363.226,51.201,369.179z"/> <path d="M417.685,118.568h-64.674c-40.119,0-72.758,32.639-72.758,72.758v140.126c0,16.344,13.298,29.642,29.642,29.642 c0.908,0,1.808-0.041,2.695-0.121v60.346c-2.596-0.614-5.303-0.941-8.084-0.941h-8.722c-3.886-24.405-25.08-43.116-50.562-43.116 h-99.705v-35.032c0-16.344-13.298-29.642-29.642-29.642H72.758c-28.231,0-51.2,22.969-51.2,51.2v10.779 c0,28.231,22.969,51.2,51.2,51.2h13.474v26.947h-2.695c-16.344,0-29.642,13.298-29.642,29.642S67.193,512,83.537,512h204.8 c4.466,0,8.084-3.618,8.084-8.084v-13.474h8.084c3.103,0,6.113-0.405,8.979-1.166c3.136,12.746,14.171,22.225,27.674,22.705 c8.15,0.271,15.817-2.658,21.657-8.292c5.842-5.637,9.059-13.214,9.059-21.33v-97.011c0-7.43,6.044-13.474,13.474-13.474 s13.474,6.044,13.474,13.474v96.493c0,16.33,12.549,29.571,28.569,30.14c0.365,0.013,0.728,0.02,1.09,0.02 c7.721-0.001,14.989-2.93,20.567-8.313c5.842-5.637,9.059-13.214,9.059-21.33V360.973c0.887,0.08,1.787,0.121,2.695,0.121 c16.344,0,29.642-13.298,29.642-29.642V191.325C490.443,151.207,457.804,118.568,417.685,118.568z M102.401,328.757h13.474 c7.43,0,13.474,6.044,13.474,13.474v21.558c0,7.43-6.044,13.474-13.474,13.474s-13.474-6.044-13.474-13.474V328.757z M72.758,409.599c-19.317,0-35.032-15.715-35.032-35.032v-10.779c0-19.317,15.715-35.032,35.032-35.032h13.474v16.168h-2.695 c-4.466,0-8.084,3.618-8.084,8.084s3.618,8.084,8.084,8.084h2.695v2.695c0,16.344,13.298,29.642,29.642,29.642 c4.848,0,9.429-1.171,13.474-3.243v5.938c0,7.43-6.044,13.474-13.474,13.474H72.758z M280.253,495.83h-45.811 c-7.43,0-13.474-6.044-13.474-13.474s6.044-13.474,13.474-13.474h21.558c4.466,0,8.084-3.618,8.084-8.084s-3.618-8.084-8.084-8.084 h-13.474v-24.253c0-4.466-3.618-8.084-8.084-8.084c-4.466,0-8.084,3.618-8.084,8.084v25.373 c-12.428,3.527-21.558,14.978-21.558,28.522c0,4.848,1.171,9.429,3.243,13.474h-51.749v-56.589c0-4.466-3.618-8.084-8.084-8.084 c-4.466,0-8.084,3.618-8.084,8.084v56.589H83.537c-7.43,0-13.474-6.044-13.474-13.474s6.044-13.474,13.474-13.474h32.337 c4.466,0,8.084-3.618,8.084-8.084s-3.618-8.084-8.084-8.084h-13.474v-26.947h13.474c16.344,0,29.642-13.298,29.642-29.642v-2.695 h99.705c19.317,0,35.032,15.715,35.032,35.032V495.83z M304.506,474.273h-8.084v-37.726h8.084c10.401,0,18.863,8.463,18.863,18.863 C323.369,465.811,314.906,474.273,304.506,474.273z M441.937,482.357c0,3.69-1.463,7.134-4.119,9.697 c-2.654,2.562-6.15,3.891-9.854,3.768c-7.154-0.254-12.975-6.527-12.975-13.981v-96.493c0-16.344-13.298-29.642-29.642-29.642 s-29.642,13.298-29.642,29.642v97.011c0,3.69-1.463,7.134-4.119,9.697c-2.653,2.562-6.155,3.891-9.854,3.768 c-7.154-0.255-12.975-6.528-12.975-13.982c0-0.374-0.025-0.742-0.074-1.103c6.683-6.383,10.853-15.378,10.853-25.327 c0-9.912-4.139-18.878-10.779-25.256v-75.853c6.579-5.442,10.779-13.664,10.779-22.849V307.2h91.621v24.253 c0,9.185,4.199,17.407,10.779,22.849V482.357z M474.274,331.452c0,7.43-6.044,13.474-13.474,13.474 c-2.421,0-4.695-0.642-6.661-1.766c-0.047-0.027-0.096-0.055-0.143-0.082c-3.987-2.343-6.67-6.676-6.67-11.626V212.883 c0-4.466-3.618-8.084-8.084-8.084c-4.466,0-8.084,3.618-8.084,8.084v78.147h-91.621v-78.147c0-4.466-3.618-8.084-8.084-8.084 s-8.084,3.618-8.084,8.084v118.568c0,4.95-2.682,9.283-6.67,11.626c-0.047,0.027-0.096,0.055-0.143,0.082 c-1.965,1.123-4.24,1.766-6.661,1.766c-7.43,0-13.474-6.044-13.474-13.474V191.325c0-31.203,25.387-56.589,56.589-56.589h64.674 c31.203,0,56.589,25.387,56.589,56.589v140.126H474.274z M385.348,102.4c28.231,0,51.2-22.969,51.2-51.2S413.579,0,385.348,0 c-28.231,0-51.2,22.969-51.2,51.2S357.117,102.4,385.348,102.4z M385.348,16.168c19.317,0,35.032,15.715,35.032,35.032 s-15.715,35.032-35.032,35.032c-19.317,0-35.032-15.715-35.032-35.032S366.031,16.168,385.348,16.168z"/> </g>
</svg>